<svg id="Layer_1" data-name="Layer 1" xmlns="http://www.w3.org/2000/svg" viewBox="0 0 35 30.35"><defs><style>.cls-1{fill:#fff;fill-rule:evenodd;}</style></defs><path class="cls-1" d="M17.42,7.42l-6.57,3.8V18.9l.65.38,6.07,3.43,6.58-3.81V11.22Zm.07,11.52a3.88,3.88,0,1,1,3.88-3.88A3.88,3.88,0,0,1,17.49,18.94Z"/><path class="cls-1" d="M8.76,20a3.82,3.82,0,0,1-.18-.9V11.21a4.51,4.51,0,0,1,.36-1.08,2.13,2.13,0,0,1,.73-.72l5.56-3.13-8.89-5H1.5V29.05H13.11v-6.3l-4-2.16A1.49,1.49,0,0,1,8.76,20Z"/><path class="cls-1" d="M21.89,29.05V22.74l4-2.16a1.39,1.39,0,0,0,.36-.54,3.82,3.82,0,0,0,.18-.9V11.21a4.37,4.37,0,0,0-.36-1.08,2,2,0,0,0-.73-.72L19.78,6.28l8.88-5H33.5V29.05Z"/></svg>